<?xml version="1.0" encoding="UTF-8"?>
<svg id="Capa_2" data-name="Capa 2" xmlns="http://www.w3.org/2000/svg" viewBox="0 0 665.26 101.84">
  <g id="Capa_1-2" data-name="Capa 1">
    <path d="M0,101.84V20.61h11.79v70.11h36.78v11.11H0Z"/>
    <path d="M99.89,20.61h-16.98l-26.4,81.22h69.77l-26.4-81.22ZM72.13,91.43l19.14-59.04,19.36,59.04h-38.5Z"/>
    <path d="M136.44,101.84V20.61h32.83c.79,0,1.77.03,2.93.08,1.17.06,2.27.18,3.33.37,4.51.71,8.28,2.26,11.31,4.62,3.03,2.37,5.29,5.36,6.8,8.97,1.5,3.61,2.26,7.6,2.26,11.96,0,6.47-1.66,12.04-4.96,16.72-3.31,4.68-8.27,7.61-14.89,8.77l-4.79.56h-23.01v29.16h-11.79ZM148.22,61.51h20.59c.75,0,1.59-.04,2.51-.11.92-.07,1.8-.21,2.62-.39,2.41-.56,4.34-1.61,5.81-3.13,1.47-1.52,2.52-3.28,3.16-5.27.64-1.99.96-3.99.96-5.98s-.32-3.98-.96-5.95c-.64-1.97-1.69-3.72-3.16-5.25-1.47-1.52-3.4-2.57-5.81-3.13-.83-.23-1.7-.38-2.62-.45-.92-.07-1.76-.11-2.51-.11h-20.59v29.78ZM183.93,101.84l-16.02-33.05,11.9-3.05,17.6,36.1h-13.48Z"/>
    <rect x="217.25" y="91.43" width="445.2" height="10.41"/>
    <rect x="74.39" width="11.28" height="11.28" rx="1.11" ry="1.11"/>
    <rect x="97.12" width="11.28" height="11.28" rx="1.11" ry="1.11"/>
    <g>
      <path d="M217.25,71.91V23.39h26.85v2.83h-24.28v20.01h20.62v2.83h-20.62v20.01h24.28v2.83h-26.85Z"/>
      <path d="M251.42,71.91V23.39h12.87c.53,0,1.37.01,2.53.03,1.16.02,2.27.12,3.33.3,3.23.52,5.91,1.89,8.04,4.11,2.12,2.22,3.71,5.05,4.74,8.47,1.04,3.43,1.56,7.21,1.56,11.34s-.52,7.95-1.56,11.37-2.62,6.24-4.74,8.46c-2.13,2.21-4.8,3.58-8.04,4.09-1.04.16-2.15.25-3.34.29-1.19.03-2.03.05-2.52.05h-12.87ZM254.16,69.08h10.13c.98,0,1.96-.03,2.94-.1.99-.07,1.81-.17,2.49-.3,2.89-.54,5.21-1.77,6.97-3.69,1.76-1.92,3.04-4.37,3.84-7.34.8-2.98,1.2-6.31,1.2-9.99s-.4-7.01-1.2-9.99c-.8-2.98-2.08-5.42-3.84-7.34-1.76-1.92-4.08-3.15-6.97-3.69-.67-.13-1.52-.24-2.53-.3-1.02-.07-1.98-.1-2.9-.1h-10.13v42.86Z"/>
      <path d="M307.98,72.92c-3.25,0-6.14-.75-8.66-2.26-2.52-1.5-4.51-3.62-5.95-6.35-1.44-2.73-2.17-5.92-2.17-9.59v-31.33h2.56v30.39c0,2.99.46,5.53,1.37,7.63.92,2.1,2.09,3.8,3.54,5.09,1.44,1.29,2.99,2.24,4.64,2.83,1.65.6,3.2.89,4.67.89s3.02-.3,4.67-.89c1.65-.59,3.19-1.54,4.64-2.83,1.44-1.29,2.62-2.99,3.54-5.09.92-2.1,1.37-4.64,1.37-7.63v-30.39h2.56v31.33c0,3.64-.72,6.82-2.17,9.55-1.44,2.73-3.43,4.85-5.95,6.37-2.52,1.52-5.41,2.27-8.66,2.27Z"/>
      <path d="M350.56,72.92c-4.37,0-8.02-1.08-10.94-3.23-2.92-2.16-5.11-5.13-6.57-8.93-1.46-3.8-2.2-8.16-2.2-13.11s.73-9.31,2.2-13.11,3.66-6.77,6.57-8.93c2.92-2.16,6.56-3.23,10.94-3.23,5.13,0,9.25,1.48,12.39,4.43,3.13,2.95,5.25,6.89,6.35,11.81l-2.68.67c-.98-4.29-2.8-7.71-5.48-10.26-2.67-2.55-6.2-3.82-10.57-3.82-3.76,0-6.89.96-9.38,2.86-2.49,1.91-4.37,4.55-5.63,7.93-1.26,3.38-1.91,7.26-1.95,11.64-.04,4.38.57,8.25,1.83,11.62,1.26,3.37,3.16,6.01,5.69,7.93s5.68,2.88,9.44,2.88c4.37,0,7.9-1.28,10.57-3.84,2.67-2.56,4.5-5.97,5.48-10.24l2.68.67c-1.1,4.92-3.21,8.86-6.35,11.81-3.13,2.95-7.26,4.43-12.39,4.43Z"/>
      <path d="M371.73,71.91l15.99-48.52h2.75l15.98,48.52h-2.75l-15.56-47.24h1.83l-15.5,47.24h-2.75ZM377.83,59.3v-2.7h22.45v2.7h-22.45Z"/>
      <path d="M420.73,71.91V26.22h-16.11v-2.83h34.78v2.83h-16.11v45.69h-2.56Z"/>
      <path d="M444.89,71.91V23.39h2.56v48.52h-2.56Z"/>
      <path d="M473.87,72.92c-4.37,0-8.02-1.08-10.94-3.23-2.92-2.16-5.11-5.13-6.57-8.93-1.46-3.8-2.2-8.16-2.2-13.11s.73-9.31,2.2-13.11,3.66-6.77,6.57-8.93c2.92-2.16,6.56-3.23,10.94-3.23s8.02,1.08,10.94,3.23,5.11,5.13,6.57,8.93,2.2,8.17,2.2,13.11-.73,9.31-2.2,13.11c-1.46,3.8-3.66,6.77-6.57,8.93s-6.56,3.23-10.94,3.23ZM473.87,70.09c3.76,0,6.9-.96,9.41-2.88,2.51-1.92,4.4-4.57,5.66-7.93,1.26-3.37,1.89-7.24,1.89-11.62s-.63-8.26-1.89-11.64c-1.26-3.38-3.15-6.02-5.66-7.93-2.51-1.91-5.65-2.86-9.41-2.86s-6.89.96-9.38,2.86c-2.49,1.91-4.37,4.55-5.63,7.93-1.26,3.38-1.91,7.26-1.95,11.64-.04,4.38.57,8.25,1.83,11.62,1.26,3.37,3.16,6.01,5.69,7.93s5.68,2.88,9.44,2.88Z"/>
      <path d="M499.68,71.91V23.39h2.56l26.72,43.46V23.39h2.56v48.52h-2.56l-26.72-43.53v43.53h-2.56Z"/>
      <path d="M552.27,71.91V23.39h2.56v22.84h26.6v-22.84h2.56v48.52h-2.56v-22.84h-26.6v22.84h-2.56Z"/>
      <path d="M609.31,72.92c-3.25,0-6.14-.75-8.66-2.26-2.52-1.5-4.51-3.62-5.95-6.35-1.44-2.73-2.17-5.92-2.17-9.59v-31.33h2.56v30.39c0,2.99.46,5.53,1.37,7.63.92,2.1,2.09,3.8,3.54,5.09,1.44,1.29,2.99,2.24,4.64,2.83,1.65.6,3.2.89,4.67.89s3.02-.3,4.67-.89c1.65-.59,3.19-1.54,4.64-2.83,1.44-1.29,2.62-2.99,3.54-5.09.92-2.1,1.37-4.64,1.37-7.63v-30.39h2.56v31.33c0,3.64-.72,6.82-2.17,9.55-1.44,2.73-3.43,4.85-5.95,6.37-2.52,1.52-5.41,2.27-8.66,2.27Z"/>
      <path d="M634.63,71.91V23.39h16.66c2.11,0,4.07.5,5.86,1.5s3.22,2.4,4.3,4.19c1.08,1.8,1.62,3.88,1.62,6.23,0,2.56-.67,4.91-2.01,7.06-1.34,2.15-3.11,3.66-5.31,4.53l-.12-1.62c2.91,1.03,5.24,2.69,7,4.97,1.76,2.28,2.64,5.14,2.64,8.57,0,2.76-.57,5.12-1.71,7.06-1.14,1.94-2.68,3.43-4.62,4.46-1.94,1.03-4.1,1.55-6.48,1.55h-17.82ZM637.19,44.95h14.09c1.65,0,3.16-.44,4.53-1.31,1.37-.88,2.47-2.06,3.28-3.54.81-1.48,1.22-3.14,1.22-4.99,0-2.7-.87-4.86-2.61-6.5-1.74-1.64-3.88-2.46-6.42-2.46h-14.09v18.8ZM637.19,69.08h14.03c2.11,0,4.02-.39,5.72-1.18,1.7-.79,3.04-1.92,4.03-3.4.99-1.48,1.48-3.28,1.48-5.39s-.45-4.03-1.36-5.74c-.91-1.72-2.12-3.09-3.63-4.11-1.52-1.02-3.19-1.53-5.02-1.53h-15.25v21.36Z"/>
    </g>
  </g>
</svg>